<?xml version="1.0" encoding="UTF-8" standalone="no"?>

<svg viewBox="0 0 44 44" width="44pt" height="44pt" version="1.1" id="svg5" xmlns:xlink="http://www.w3.org/1999/xlink" xmlns="http://www.w3.org/2000/svg" xmlns:svg="http://www.w3.org/2000/svg">
 <defs id="defs1">
  <linearGradient id="linearGradient5">
  <stop style="stop-color:#000000;stop-opacity:0;" offset="0.19897334" id="stop5" />
   <stop style="stop-color:#236eff;stop-opacity:1" offset="0.49775738" id="stop7" />
   <stop style="stop-color:#000000;stop-opacity:0;" offset="0.79733628" id="stop6" />
  </linearGradient>
  <linearGradient xlink:href="#linearGradient5" id="linearGradient6" x1="1.505" y1="22" x2="42.505" y2="22" gradientUnits="userSpaceOnUse" />
 </defs>
 <path d=" M 1.505 22 C 1.505 10.686 10.691 1.5 22.005 1.5 C 33.319 1.5 42.505 10.686 42.505 22 C 42.505 33.314 33.319 42.5 22.005 42.5 C 10.691 42.5 1.505 33.314 1.505 22 Z  M 2.505 22 C 2.505 16.83 4.565 11.87 8.215 8.21 C 11.875 4.56 16.835 2.5 22.005 2.5 C 27.175 2.5 32.135 4.56 35.795 8.21 C 39.445 11.87 41.505 16.83 41.505 22 C 41.505 27.17 39.445 32.13 35.795 35.79 C 32.135 39.44 27.175 41.5 22.005 41.5 C 16.835 41.5 11.875 39.44 8.215 35.79 C 4.565 32.13 2.505 27.17 2.505 22 Z " fill-rule="evenodd" id="path1" style="fill:url(#linearGradient6)" />
</svg>
